<?xml version="1.0" encoding="UTF-8"?>
<svg data-bbox="30.761 140.993 930.059 758.03" viewBox="0 0 992 992" xmlns="http://www.w3.org/2000/svg" data-type="shape">
    <g>
        <path d="M719.088 280.896c5.251 1.236 10.186 2.176 14.897 3.773 2.99 1.014 4.307.146 5.3-2.462.83-2.177 1.896-4.264 2.725-6.441 1.126-2.956 2.757-5.904 3.02-8.955.335-3.883-4.168-4.116-6.311-6.192-5.573-5.4-4.743-11.864-3.233-18.201 1.358-5.7 5.467-9.141 11.494-9.432 3.054-.148 4.332-1.633 5.3-4.255 6.921-18.746 13.895-37.472 20.974-56.158 1.315-3.47.818-5.494-2.916-6.838-2.284-.822-4.41-2.366-6.298-3.954-4.708-3.96-5.807-8.405-3.62-13.32 2.223-5 8.119-8.487 13.518-7.199 5.972 1.426 11.877 3.307 17.621 5.49 27.082 10.29 53.955 21.102 80.477 32.775 4.699 2.068 7.431 1.084 8.613-3.12 1.322-4.701 4.71-5.744 8.818-5.494 3.783.23 6.365 2.399 6.615 6.239.277 4.255-2.235 6.772-6.269 7.815-.634.164-1.291.24-2.019.371 6.304 4.777 11.6 6.272 18.005-2.473 1.911-2.609 4.314-4.145 7.719-3.293 2.884.722 4.635 2.667 5.281 5.44.785 3.365-1.014 5.744-3.54 7.669-1.501 1.144-3.288 1.534-6.489 1.84 3.665 1.37 6.2 2.282 8.707 3.263 2.633 1.03 5.333 1.946 7.84 3.23 6.461 3.307 9.271 9.105 7.308 14.636-1.876 5.285-8.187 8.48-14.947 6.984-5.183-1.147-10.207-3.009-15.307-4.538-1.732-.52-3.479-.994-5.128-1.464-2.596 2.246-1.653 5.17-2.215 7.658-3.347 14.82-7.48 29.357-14.353 43.012-1.967 3.91-4.653 7.158-8.393 10.431 4.957 2.356 9.44 4.427 13.866 6.61 3.438 1.694 6.883 3.435 9.363 6.508 2.216 2.746 3.408 5.783 1.908 9.262-1.461 3.388-4.518 4.203-7.809 4.38-4.407.234-8.62-.776-12.667-2.406-23.322-9.39-46.625-18.827-69.942-28.228-2.623-1.057-5.426-1.735-7.923-3.02-5.051-2.602-9.446-3.463-14.142 1.226-2.756 2.752-7.148 2.423-11.009 2.017-2.96-.312-4.658.797-5.589 3.651-1.6 4.905-3.348 9.764-5.187 14.584-.983 2.577-.356 4.055 2.265 4.96 1.88.65 3.645 1.633 5.452 2.486 7.632 3.601 7.993 4.295 5.333 12.173-6.826 20.213-15.127 39.834-24.585 58.935-8.387 16.94-13.96 34.919-20.395 52.588-2.051 5.631-4.403 11.128-6.986 16.555-3.809 8.002-10.217 11.646-18.662 11.966-3.643.138-6.335 1.066-8.382 4.24-1.844 2.859-4.64 4.31-8.182 3.384-2.983-.778-4 .755-4.986 3.318-3.049 7.915-7.023 15.456-9.612 23.567-.35 1.097-.803 2.223-2.523 2.433-1.97-1.574-.634-3.488-.163-5.226 2.174-8.024 4.846-15.912 6.431-24.096.316-1.63 1.294-3.458-.381-4.616-3.88-2.683-4.207-6.518-3.99-10.64.095-1.773-.545-3.243-1.791-4.489-9.205-9.2-9.483-19.97-5.453-31.45 5.57-15.864 12.894-31.062 17.876-47.153 7.94-25.645 19.07-50.096 28.259-75.274 1.069-2.93 2.684-4.948 6.412-5.082m-24.83 109.292c12.58 4.118 24.47 10.308 38.035 13.146 3.864-12.345 10.04-23.236 14.648-34.784 7.459-18.695 14.282-37.644 21.596-56.4 1.357-3.48.84-5.103-2.713-6.258-9.356-3.04-18.23-7.245-27.158-11.359-6-2.765-12.39-4.683-18.943-7.105-13.207 32.603-26.238 64.878-36.89 98.237 3.93 1.545 7.324 2.879 11.424 4.523M861.31 201.97l-28.013-10.083c-5.594 22.283-9.956 44.51-28.092 60.858 11.762 5.446 23.566 10.113 35.627 13.339 3.136-22.997 9.646-44.099 23.93-62.389-.441-1.15-1.697-1.191-3.452-1.725m2.959-7.812c6.706 2.499 13.545 4.695 20.087 7.567 10.357 4.547 20.507 9.564 31.333 12.973 2.233.704 4.445 1.42 6.836 1.152 1.587-.178 2.923-.73 3.477-2.38.558-1.66-.197-2.945-1.367-3.989-2.023-1.805-4.479-2.906-6.992-3.784-24.226-8.467-47.803-18.566-71.238-28.942-22.719-10.058-46.263-17.818-69.522-26.384-3.039-1.119-6.737-2.267-8.255 1.604-1.517 3.87 2.455 5.028 5.022 6.161 6.238 2.755 12.59 5.27 18.976 7.665 10.277 3.854 21.05 6.661 30.826 11.502 13.03 6.452 26.262 12.155 40.817 16.855M682.172 439.32c6.114 2.935 12.171 6.037 19.098 6.618 5.062.425 10.38.549 13.998-3.435 4.717-5.196 7.54-11.594 9.166-18.847-17.359-4.342-34.243-9.144-49.936-17.275-6.549 14.167-5.823 24.91 7.674 32.939M799.59 197.07c-5.53 12.276-10.975 24.6-13.89 37.817-1.513 6.86 2.01 11.132 9.019 12.027 6.818.87 11.027-3.265 13.59-8.246 6.832-13.278 13.424-26.763 15.873-41.737.9-5.505-1.539-10.246-5.823-12.078-4.504-1.926-10.254-.645-13.535 3.479-1.943 2.443-3.278 5.369-5.234 8.738M886 225.45c.343-2.46.935-4.915.983-7.38.122-6.297-4.55-10.023-10.792-9.014-4.283.693-7.38 3.197-9.612 6.554-8.98 13.51-13.373 28.811-16.673 44.466-.64 3.03.237 5.87 3.125 7.833 8.312 5.651 15.547 3.911 19.965-5.021 5.772-11.671 9.827-23.955 13.003-37.437m-113.53 22.586c-6.8-3.075-13.55-6.374-20.994-7.566-4.131-.662-8.08-.173-9.776 4.655-1.835 5.223-.646 9.43 3.637 12.204 9.608 6.222 20.57 8.124 31.625 9.226 5.442.543 7.968-3.748 6.13-9.034-1.686-4.853-5.72-7.105-10.621-9.485m38.934 19.935c5.888 2.3 11.772 4.607 17.664 6.895 17.677 6.867 35.345 13.758 53.052 20.546 2.135.818 4.459 2.014 8.041.06-31.842-17.188-66.536-24.163-98.625-39.575.691 5.575.688 5.585 4.023 6.708 5.041 1.697 10.088 3.379 15.845 5.366m-27.52-68.763c-5.065 11.083-9.192 22.505-12.464 34.243-1.609 5.77-.616 7.173 5.432 7.914 2.65-23.148 11.853-43.623 24.561-63.063-.776-.989-2.554-1.152-3.957-1.973-3.86-2.26-5.906-1.169-7.12 3.152-1.8 6.406-4.09 12.676-6.452 19.727m-54.868 212.293c-.37-1.964-2.11-1.822-3.472-2.262-4.594-1.483-9.27-2.75-13.763-4.494-10.515-4.082-21.337-7.342-31.36-12.39-3.84 6.114-3.89 6.393 1.565 9.005 12.966 6.209 26.545 10.727 40.506 14.099 2.998.724 5.773.694 6.524-3.958m24.565-118.918c1.11.113 2.022-.271 2.44-1.31 2.46-6.106 4.876-12.23 7.34-18.435-1.307-.672-2.015-1.095-2.767-1.414-7.408-3.139-7.41-3.134-10.276 4.117-1.039 2.628-1.735 5.465-3.182 7.844-2.762 4.54-1.465 6.987 3.381 8.202.803.2 1.568.552 3.064.996m-67.019 155.42c-1.806-.453-3.367-2.11-5.518-1.213 2.215 4.443 7.442 6.416 10.261 3.915-.827-1.69-2.681-1.682-4.743-2.701"/>
        <path d="M363.115 434.996c1.791 10.102 3.224 19.834 5.366 29.408 1.64 7.331 6.174 9.843 13.48 8.693 2.957-.465 5.943-.937 8.924-.997 2.741-.056 5.72.563 5.946 3.983.207 3.163-2.528 4.104-5.064 4.48-10.536 1.565-21.05 3.63-31.65 4.322-14.677.959-28.975 4.52-43.547 5.691-18.122 1.457-35.823 5.845-53.959 6.95-1.48.09-2.992.178-4.447-.03-1.813-.257-3.015-1.438-3.253-3.304-.282-2.21 1.058-3.578 2.95-4.045 2.733-.676 5.55-1.09 8.357-1.378 8.948-.916 15.687-9.434 14.239-18.298-3.248-19.876-7.022-39.67-9.055-59.73-2.197-21.692-4.579-43.366-6.653-65.069-1.537-16.071-2.731-32.176-4.027-48.27-.23-2.853-1.115-4.992-3.917-6.385-3.032-1.507-4.764-4.121-4.355-7.733.374-3.309 2.58-4.932 5.543-5.644 2.61-.626 3.916-2.151 4.297-4.79.236-1.631.551-3.428 1.426-4.76 4.076-6.207 6.423-12.537 5.248-20.327-.49-3.25 3.339-6.398 2.121-10.72-.867-3.078-2.03-4.166-5.01-4.056-5.661.208-11.328.236-16.991.392-4.268.117-7.554-1.583-9.258-5.492-1.155-2.648-2.803-3.048-5.477-2.917-20.11.984-40.079 4.07-60.253 4.077-2 0-4 .086-5.998.069-16.658-.145-25.41-12.915-19.693-28.665 1.54-4.242 4.66-6.777 8.658-8.456 7.303-3.066 14.98-4.602 22.829-5.027 16.296-.882 32.606-1.503 48.907-2.284 4.467-.214 8.729-.691 12.894-3.069 5.68-3.242 12.418-2.162 18.646-2.467 22.612-1.107 45.253-1.61 67.882-2.368 5.212-.174 9.98.647 13.38 5.158.98 1.3 2.477 1.524 4.007 1.712 7.132.876 13.99 3.029 20.984 4.547 4.794 1.04 7.08 3.991 7.509 8.678.03.332.047.665.07.997 1.003 13.742.185 14.824-12.743 19.644-6.953 2.592-14.176 4.426-20.388 9.029-3.857 2.857-9.033 3.229-13.878 3.594-6.05.456-8.019 3.116-5.52 8.625 1.554 3.424 2.69 6.754 2.74 10.496.011.775.25 1.98.769 2.25 7.26 3.785 10.071 12.65 18.545 15.377 6.54 2.104 7.297 9.57 1.949 14.007-1.863 1.546-3.028 2.71-2.284 5.31 3.928 13.715 4.629 27.905 5.533 42 1.07 16.689 4.955 32.898 7.436 49.342 2.857 18.936 3.396 38.138 6.785 57.45m-6.89 29.819c4.715-.103 3.775-3.488 3.217-6.109-4.862-22.834-7.544-45.942-9.294-69.198-1.076-14.287-4.215-28.295-6.508-42.416-2.699-16.617-2.537-33.514-4.961-50.157-1.931-13.256-1.968-13.593-15.418-12.514-17.921 1.438-35.64 4.56-53.373 7.476-2.709.446-3.462 1.508-3.094 4.354 1.023 7.916 1.878 15.87 2.36 23.836 1.755 29.086 5.656 57.954 8.65 86.913 2.104 20.367 5.38 40.55 9.191 60.67.846 4.465 2.281 5.413 6.447 4.872 20.625-2.682 41.28-5.138 62.783-7.727m-65.556-278.58c-12.615.706-25.23 1.44-37.848 2.102-3.985.209-5.908 1.69-5.686 6.15.364 7.304.106 14.639.087 21.96-.018 7.165.55 7.782 7.674 7.416 17.435-.895 34.875-1.732 52.297-2.826 8.787-.552 17.62.766 26.381-.952 3.246-.637 4.39-2.18 4.415-5.408.059-7.693-1.24-15.228-2.041-22.83-.512-4.853-2.696-6.79-7.418-6.506a507 507 0 0 1-37.86.894m-52.927 13.509c.731-5.002-1.261-6.813-6.41-6.488-15.122.954-30.282 1.306-45.397 2.339-7.93.541-15.972.664-23.645 3.427-5.509 1.983-7.183 4.26-7.158 10.969.02 5.338 2.31 8.481 7.245 10.082 2.277.738 4.609.612 6.934.635 21.69.22 43.164-3.092 64.787-3.935 2.882-.113 3.755-1.51 3.712-4.09-.067-4-.048-8-.068-12.94m59.84 70.168c10.097-1.369 20.299-2.106 30.802-4.405-3.731-6.111-8.083-9.198-14.814-8.045-2.776.475-5.637.432-8.44.784-8.24 1.035-16.664.43-24.752 2.804-6.398 1.878-10.03 6.224-10.67 13.221 9.214-.408 18.042-2.783 27.873-4.359m1.075 214c21.933-.923 43.206-6.707 65.574-8.008-1.358-3.582-3.396-3.278-5.603-3.04-11.404 1.23-22.823 2.324-34.228 3.55-11.241 1.21-22.47 2.536-33.707 3.777-3.241.358-5.694 1.558-6.362 5.395 4.713.384 9.011-1.176 14.326-1.674m3.897-253.734c-5.121.396-10.237.872-15.363 1.169-8.401.486-9.566 2.166-6.961 10.863 10.938-.613 21.9-1.514 32.622-3.83-.076-7.97-.477-8.388-7.369-8.258zm45.338-36.94c-1.567-.231-3.674-1.191-3.348 1.792.657 6.029 1.488 12.038 2.306 18.517 5.48-2.037 10.416-3.948 15.407-5.7 3.551-1.248 3.312-3.987 3.256-6.929-.056-2.985-1.72-3.975-4.265-4.529-4.223-.918-8.408-2.013-13.356-3.152m-56.98 87.98c16.895-2.81 34.216-2.792 50.896-7.028-3.03-1.975-69.38 7.82-78.075 11.347 8.776-1.37 17.553-2.74 27.18-4.32m15.542-30.318c2.308-.217 4.629-.345 6.918-.685 1.178-.175 2.332-.82 2.093-2.3-.247-1.53-1.502-1.59-2.716-1.382-11.13 1.91-22.373 2.79-33.616 3.662-2.344.181-3.227 1.205-2.24 4.122 9.452-2.732 19.103-2.457 29.561-3.417"/>
        <path d="M564.178 268c-.068 30.318-.675 60.136-2.285 89.901-1.159 21.428-3.57 42.788-5.418 64.18-.086.995-.306 2.019-.167 2.987 1.663 11.666-2.866 21.178-9.549 30.378-7.533 10.37-12.688 22.275-20.055 32.807-3.897 5.57-8.27 5.555-11.276-.427-7.412-14.745-15.98-28.84-24.094-43.19-1.692-2.99-2.554-5.995-2.53-9.473.126-17.975-.674-35.994.308-53.917 1.011-18.474 1.675-36.918 1.63-55.41-.048-18.989-.011-37.966-.784-56.954-1.16-28.504 1.196-56.906 3.806-85.264.96-10.429 6.796-17.566 16.418-21.396 6.662-2.652 13.655-4.43 20.762-5.335 12.589-1.604 24.362 4.745 30.217 16.062 3.499 6.763 5.535 13.969 4.929 21.652-1.916 24.269-1.992 48.58-1.912 73.399m-55.315-47.1-11.947-3.765c0 6.606-.016 12.382.002 18.158.123 38.794 1.333 77.587.452 116.382-.438 19.306-1.35 38.601-1.998 57.903-.065 1.94-.437 3.947 1.05 5.718 3.696 4.403 9.002 5.666 15.545 3.533 4.823-1.571 7.826-5.675 8.14-11.287q.518-9.226.904-18.46c1.278-30.591 2.847-61.176 3.697-91.78.65-23.455.333-46.935.591-70.403.03-2.682-.908-3.434-3.344-3.731-4.123-.502-8.203-1.352-13.092-2.269m29.948 200.297c1.573-.54 3.497-.683 4.646-1.702 2.573-2.28 7.097-2.781 7.155-7.49.184-14.99 2.15-29.867 2.947-44.811 1.356-25.433 1.913-50.898 2.2-76.37.27-23.807-.443-47.625.806-71.422.064-1.219.566-2.72-1.286-3.657-6.233 3.206-12.721 6.238-19.939 7.13-2.657.33-3.082 2.07-2.974 4.294.29 5.984.813 11.973.764 17.956-.235 28.456.374 56.891-1.576 85.364-1.84 26.878-1.842 53.89-3.348 80.818-.424 7.566 2.138 10.034 10.605 9.89m-5.063 42.37c6.446-8.672 12.872-17.35 16.32-27.79 1.043-3.157.99-6.114-.7-8.802-.49-.117-.664-.215-.81-.183-.485.106-.987.195-1.432.401-8.682 4.024-16.979 4.551-24.425-2.669-1.123-1.089-2.244-1.123-3.596-.363-7.43 4.178-15.138 5.723-23.93 1.56.485 5.366-1.277 10.105 1.576 14.613 4.71 7.443 9.31 14.955 13.96 22.437.88 1.417 1.703 3.06 3.67 2.972 6.27-.28 12.641.458 19.367-2.176m-9.37-299.624c-3.22.825-6.456 1.598-9.658 2.485-10.357 2.871-15.104 8.984-15.849 19.731-.2 2.896.853 4.368 3.355 5.253 17.652 6.24 35.062 6.994 52.215-1.884 2.626-1.36 2.993-2.727 2.526-5.45-2.354-13.738-16.421-25.72-32.59-20.135m14.32 51.45c3.764-.75 7.359-2.009 10.882-3.516 7.56-3.234 9.383-7.042 7.252-15.87-18.635 11.535-38.224 9.681-57.944 3.717-1.556 7.546-1.232 8.187 4.827 10.794 10.93 4.704 22.326 6.195 34.983 4.875"/>
        <path d="M634.34 778.119c-4.3 10.26-8.127 13.085-16.954 12.99-2.453-.027-3.728-.83-4.71-3.355-11.973-30.79-19.956-62.785-28.806-94.52-.67-2.404-1.498-4.767-2.11-7.185-1.2-4.738-2.693-8.668-8.972-8.463-3.09.1-5.816-2.34-5.585-5.886.225-3.449 3.316-4.496 6.187-4.74 8.957-.76 17.931-1.4 26.911-1.773 2.98-.123 6.396.519 7.026 4.239.653 3.86-2.441 5.12-5.427 5.952-3.188.888-6.446 1.524-10.483 2.457 11.648 29.658 20.106 60.135 29.83 90.193l1.383-.042c2.025-6.087 4.21-12.127 6.046-18.271 7.67-25.673 15.214-51.383 22.856-77.064 1.833-6.157 12.053-9.733 17.627-6.293 1.348.832 2.714 2.043 2.452 3.52-.983 5.544 1.769 10.124 3.804 14.72 8.535 19.267 13.004 39.858 19.813 59.682 3.22 9.379 5.802 18.977 9.52 28.523 9.225-31.336 18.518-62.476 25.832-94.645-3.052-.309-5.807-.423-8.496-.903-2.98-.533-5.477-2.005-5.53-5.44-.052-3.386 2.632-4.605 5.317-4.962 10.093-1.342 20.262-1.368 30.417-1 2.81.103 5.344 1.505 5.442 4.786.089 2.996-2.157 4.273-4.743 4.986-.482.133-.962.275-1.45.378-10.065 2.135-9.925 2.162-11.912 12.143-5.722 28.746-13.79 56.928-20.73 85.38-1.02 4.178-2.885 8.147-4.318 12.226-.596 1.699-1.704 2.883-3.382 3.418-3.835 1.223-7.776 1.999-11.796 1.398-4.096-.613-6.92-2.588-6.084-7.343.251-1.426-.243-2.624-.617-3.883-7.543-25.374-15.015-50.77-22.705-76.1-2.019-6.65-4.722-13.092-7.484-20.652-10.232 32.23-16.977 64.34-28.169 95.529"/>
        <path d="M889.514 733.458c-10.564-15.131-20.762-30.099-35.06-43.412-.555 7.986.763 14.654 1.11 21.333 1.051 20.275 2.448 40.532 3.393 60.812.21 4.504.85 7.471 6.21 7.055 1.263-.099 2.658.371 3.861.887 2.63 1.128 4.42 2.991 4.245 6.11-.177 3.15-2.205 4.77-4.984 5.474-1.589.402-3.291.44-4.946.484-8.82.238-17.66-.317-26.459.729-.493.058-.999.031-1.498.011-5.493-.22-9.27-3.09-9.366-7.11-.093-3.883 3.15-6.311 8.949-6.7 10.035-.673 10.245-.685 9.69-10.568-1.594-28.423-3.404-56.835-5.038-85.256-.163-2.838-1.167-4.253-4.071-4.506-2.139-.187-4.32-.581-6.339-1.291-3.076-1.082-5.188-3.27-4.787-6.76.389-3.381 2.691-5.66 5.967-5.759 7.805-.234 15.728-.685 23.3 1.702 5.184 1.634 8.177 6.125 11.214 10.3 20.863 28.676 41.684 57.384 62.54 86.066.958 1.317 1.658 2.918 3.932 3.896.385-29.23.77-58.164.237-87.146-1.25-1.136-2.817-.678-4.27-.77-2.158-.139-4.347-.05-6.472-.382-5.58-.871-9.05-4.162-8.669-7.978.368-3.681 3.977-6.082 9.587-6.012 9.979.124 19.96-1.552 29.93.004 1.786.279 3.644.65 5.247 1.433 2.57 1.254 4.223 3.49 3.783 6.444-.46 3.09-2.562 4.947-5.666 5.557-.488.095-.992.112-1.49.15-8.547.648-8.315.635-7.812 9.711.783 14.13 1.805 28.268 1.379 42.43-.56 18.633.23 37.24.712 55.854.029 1.114-.172 2.379-.696 3.338-2.81 5.145-16.334 5.92-19.001.733-8.065-15.687-20.162-28.55-29.599-43.255-2.878-4.485-5.905-8.874-9.063-13.608"/>
        <path d="M526.768 676.062c20.09 8.783 33.81 38.651 27.817 62.828-2.341 9.444-5.952 18.35-10.807 26.762-8.826 15.29-23.263 21.495-39.74 23.425-20.916 2.45-41.906.506-62.859-.327-.988-.039-1.989-.263-2.943-.542-3.128-.916-5.457-2.71-5.472-6.238-.014-3.306 2.203-5.063 5.078-6.04 1.251-.426 2.635-.91 3.897-.78 6.027.627 6.84-2.514 6.93-7.738.484-27.645.427-55.275-.632-82.905-.133-3.472-1.164-5.242-4.892-5.25-2.469-.006-4.994-.423-7.39-1.051-3.013-.79-4.897-2.856-4.878-6.135.02-3.37 2.227-5.016 5.15-5.917.786-.241 1.641-.413 2.455-.38 19.77.783 39.61-1.581 59.339 1.683 9.931 1.643 19.541 4.044 28.947 8.605m-62.847 23.606c.38 23.48.683 46.96-.583 70.423-.203 3.772 1.166 5.028 4.818 4.972 10.325-.16 20.673.3 30.976-.209 16.757-.827 29.745-7.807 36.408-24.148 2.202-5.4 4.416-10.758 5.64-16.508 4.112-19.322-5.459-39.542-23.31-47.666-16.66-7.582-34.527-7.973-52.433-7.524-2.614.066-2.789 1.667-2.618 3.757.433 5.31.735 10.63 1.102 16.903"/>
        <path d="M406.996 631.13c-5.325.077-10.16.329-14.977.133-3.772-.153-7.73-1.116-8.414-5.54-.699-4.514 2.936-6.901 6.503-7.545 5.25-.947 5.967-3.8 5.974-8.366.03-20.809.446-41.616.538-62.425.036-8.15-.504-16.301-.597-24.454-.035-3.029-.987-4.62-4.221-4.83-2.128-.138-4.249-.794-6.309-1.425-1.705-.522-2.914-1.661-2.678-3.683.213-1.827 1.629-2.38 3.13-2.74.804-.193 1.647-.342 2.467-.32 17.486.492 34.907-1.845 52.403-1.126 6.86.281 13.565 1.176 20.218 2.873 18.439 4.703 22.333 20.844 19.793 34.073-1.829 9.53-6.901 16.84-15.885 21.108-1.023.486-1.949 1.173-2.98 1.803.936 1.974 2.812 1.9 4.262 2.474 12.552 4.974 21.289 16.554 20.922 27.822-.46 14.179-8.77 25.288-22.605 29.715-13.422 4.296-27.263 4.07-41.088 2.976-5.326-.421-10.627-.68-16.456-.523m29.84-56.65c-6.804.905-13.607.401-20.404-.077-3.907-.274-5.762 1.018-5.541 5.344.39 7.631.298 15.287.429 22.933.238 13.836.241 13.95 14.343 14.283 10.954.258 21.964.89 32.712-2.151 9.072-2.566 14.813-9 15.552-17.408.63-7.162-3.474-13.799-11.61-17.464-7.757-3.495-15.878-5.96-25.481-5.46m-6.394-13.691c9.953.153 19.55-1.205 28.383-6.253 6.592-3.767 11.404-12.744 10.552-20.129-.974-8.437-5.21-12.718-15.645-14.77-13.49-2.651-27.176-1.51-40.797-1.479-2.549.006-3.326 1.22-3.217 3.803.491 11.624.86 23.254 1.064 34.886.05 2.793.87 3.882 3.71 3.825 4.986-.1 9.978.071 15.95.117"/>
        <path d="M510.082 508.968c16.624-.375 32.734-1.67 48.903-1.164 7.433.233 14.5 1.87 21.505 4.085 13.277 4.2 17.733 17.072 17.078 27.525-.748 11.936-5.99 21.348-17.146 26.81-.737.362-1.397.881-2.075 1.353-.103.072-.106.286-.318.918 4.802 1.95 9.506 4.149 13.739 7.417 21.364 16.497 9.614 45.196-9.996 51.448-12.44 3.966-25.239 4.642-38.06 3.56-10.335-.871-20.62-.795-30.94-.534-2.986.076-6.01.251-8.875-.949-5.33-2.232-6.028-6.825-1.567-10.416.517-.416 1.074-1.012 1.66-1.074 9.025-.962 8.101-7.408 8.105-13.846.012-21.814.394-43.628.507-65.443.03-5.654-.477-11.309-.6-16.966-.062-2.825-1.182-4.216-4.103-4.506-2.29-.228-4.554-.935-6.769-1.626-1.517-.473-2.58-1.561-2.454-3.342.127-1.814 1.416-2.71 2.963-2.88 2.635-.288 5.304-.265 8.443-.37m47.85 107.196c7.268-.7 14.622-.882 21.35-4.344 12.896-6.639 14.425-21.504 3.007-30.374-1.683-1.308-3.663-2.268-5.59-3.219-14.959-7.386-31.057-3.782-46.68-4.737-2.756-.169-3.05 2.028-3.027 4.172.129 11.479.267 22.957.383 34.435.016 1.626.205 3.006 2.302 3.102 9.125.419 18.225 1.457 28.255.965m-31.195-64.502c.024.998.195 2.02.045 2.99-.625 4.057 1.166 5.202 5.053 5.025 5.814-.264 11.655.097 17.48-.007 9.254-.166 18.197-1.567 26.31-6.557 7.087-4.359 11.151-14.492 9.161-22.538-2.168-8.764-9.103-10.947-16.484-12.215-12.878-2.213-25.908-1.212-38.885-1.211-2.93 0-3.971 1.19-3.784 4.333.584 9.797.797 19.616 1.104 30.18"/>
        <path d="M420.382 739.207c-.631 5.763-2.03 10.885-3.689 15.963-7.396 22.65-25.138 31.45-46.79 34.942-7.941 1.281-15.922 1.126-23.876-.136-26.385-4.186-46.934-27.226-48.521-53.99-.466-7.858-.421-15.672.671-23.403 3.42-24.192 18.98-37.513 40.99-44.748 8.41-2.764 17.356-2.332 25.994-3.958 6.176-1.163 12.395 1.279 17.591 4.572 23.207 14.71 37.32 35.118 38.226 63.36.074 2.311-.345 4.638-.596 7.398m-17.309-24.717c-1.811-3.558-3.358-7.283-5.484-10.642-5.957-9.415-13.429-17.31-23.41-22.661-8.817-4.727-17.532-1.46-26.257.012-22.03 3.718-34.31 16.59-36.37 38.64-1.262 13.493.105 26.535 8.218 38.212 16.78 24.149 50.895 21.132 68.136 11.272 16.685-9.543 22.153-39.11 15.167-54.833"/>
        <path d="M172.202 683.215c15.416-14.973 33.992-20.114 54.383-17.772 10.465 1.203 18.964 8.103 26.589 15.122 17.948 16.524 25.807 37.127 23.648 61.519-1.216 13.731-8.926 23.467-18.526 32.58-23.284 22.103-65.568 19.134-85.794 1.312-8.135-7.168-14.313-15.738-16.363-26.287-4.722-24.304-1.93-47.13 16.063-66.474m8.227 11.704c-8.154 8.774-10.522 19.648-11.789 31.113-3.038 27.5 10.57 45.763 37.818 50.263 20.497 3.385 41.378-5.994 52.486-23.552 2.086-3.298 3.417-6.866 3.689-10.745.682-9.735-.18-19.294-3.815-28.45-6.219-15.657-17.253-26.92-32.666-33.248-12.562-5.159-34.912 2.343-45.723 14.62"/>
        <path d="M369.83 625.231c.25 3.462-2.241 3.724-4.268 4.054-9.428 1.536-18.94.812-28.42.738-2.028-.016-4.13-.91-4.166-3.446-.036-2.56 2.07-3.104 4.09-3.565 1.894-.433 4.03.233 6.283-1.672-3.122-7.621-6.272-15.436-9.535-23.202-.951-2.263-3.163-2.234-5.172-2.127-17.952.957-35.902 1.96-53.852 2.942-1.929.105-3.7.529-4.45 2.566-2.343 6.366-4.636 12.751-6.897 18.985 2.427 2.238 4.94 1.09 7.114 1.664 2.272.6 4.21 1.584 4.257 4.17.046 2.462-1.936 3.475-3.968 3.775-9.756 1.442-19.58 1.526-29.404 1.017-1.876-.097-3.576-1.075-3.758-3.337-.188-2.343 1.563-3.734 3.307-3.654 8.8.401 9.393-5.91 10.875-12.135 2.977-12.508 8.2-24.263 12.958-36.163 7.786-19.475 15.366-39.034 23.401-58.405 3.36-8.099 11.17-11.163 19.387-8.674 1.641.497 2.321 1.69 3.035 3.047 12.256 23.301 22.577 47.481 32.468 71.846 4.816 11.865 9.995 23.625 13.152 36.095.653 2.58 2.297 2.874 4.443 2.958 3.11.122 6.409-.397 9.12 2.523m-55.37-41.224c4.186-.251 8.504.381 12.84-1.44-8.316-19.762-16.27-39.075-26.605-58.625l-23.877 61.224c13.125-1 24.888-1.301 37.642-1.159"/>
        <path d="M121.452 731.493c.792.074 1.125.11 1.458.117 12.993.306 14.83 2.228 13.984 15.454-.381 5.977-1.416 11.912-1.841 17.889-1.021 14.329-9.307 22.391-22.516 25.818-15.374 3.989-30.705 3.476-45.67-2.137-25.841-9.692-40.516-45.55-34.923-68.744 2.82-11.695 5.853-23.297 13.595-32.973 6.809-8.508 15.532-14.124 26.06-16.648 17.549-4.208 35.286-4.792 53.07-1.607 7.247 1.298 10.326 2.552 11.125 10.898.506 5.285 1.642 10.522 1.402 15.875-.161 3.592-1.34 6.925-5.374 7.314-4.234.408-5.608-2.97-6.243-6.42-.663-3.6-1.148-7.242-1.495-10.886-.26-2.743-1.436-4.23-4.267-4.532-17.094-1.825-34.029-1.087-50.299 4.732-9.84 3.519-15.664 11.583-19.396 21.061-1.827 4.64-3.203 9.462-4.69 14.23-4.236 13.572 1.747 25.23 7.576 36.584 7.77 15.14 20.965 21.654 37.762 21.511 7.502-.064 14.985.23 22.203-2.51 5.187-1.971 8.09-5.373 8.774-11 .645-5.307.746-10.622 1.11-15.933.317-4.606-1.52-5.804-5.8-5.512-3.962.27-7.992.02-11.957-.364-3.15-.307-5.965-1.677-6.235-5.356-.289-3.932 2.47-5.619 5.733-6.467 5.408-1.407 10.91-1.005 16.854-.394"/>
        <path d="M715.633 506.58c4.784-.367 9.102-.878 13.419-.072 3.87.723 6.591 2.807 6.48 6.972-.107 4.03-2.92 5.706-6.661 6.074-.994.098-2.066.515-2.967.275-8.313-2.214-11.394 2.776-14.633 9.278-8.475 17.01-19.133 32.78-29.278 48.825-1.309 2.07-2.096 4.07-2 6.513.388 9.98 1.465 19.94.98 29.946-.16 3.314 1.482 4.473 4.579 4.243 1.324-.098 2.67-.065 3.995.045 3.532.295 6.304 1.88 6.416 5.675.115 3.862-2.699 5.739-6.166 5.87-7.982.3-15.958 1.164-23.964.554-2.822-.215-5.653-.313-8.476-.522-3.39-.25-6.584-1.134-6.527-5.288.057-4.125 3.318-4.958 6.658-5.231 2.986-.245 5.986-.47 8.978-.458 2.6.01 3.44-1.21 3.628-3.631.805-10.327.005-20.635-.174-30.95-.037-2.134-1.118-3.77-2.318-5.402-13.717-18.666-27.07-37.581-38.551-57.736-1.515-2.66-3.47-3.718-6.448-3.721-2.82-.004-5.664-.287-8.449-.744-2.32-.38-3.977-1.845-4.128-4.352-.139-2.323 1.371-3.646 3.34-4.479 2.179-.921 4.485-1.193 6.837-1.265 9.155-.28 18.31-.578 27.464-.902 6.77-.24 10.5 1.759 10.525 5.707.023 3.868-3.666 5.984-10.445 6.101-2.44.043-4.98-.826-7.77.897 10.25 17.287 21.553 33.765 34.727 50.32 9.534-16.55 20.48-31.326 29.187-48.363-3.775-.462-6.868-.675-9.892-1.249-5.247-.996-7.918-3.915-7.23-7.854.841-4.82 4.523-5.04 8.41-5.007 6.661.058 13.324-.027 20.454-.069"/>
        <path d="M798.199 708c-.028 22.302-.276 44.103.77 65.897.186 3.86 1.483 5.277 5.306 5.308 4.196.034 9.323.356 9.394 5.858.067 5.28-4.776 6.027-9.098 6.454-9.304.92-18.63.341-27.943.363-3.58.008-6.776-1.472-6.791-5.732-.015-4.084 3.227-4.993 6.498-5.537 9.178-1.525 9.185-1.517 8.552-10.666-1.345-19.431-1.476-38.885-1.367-58.355.05-9.144-.566-18.292-.892-27.437-.123-3.424-.859-6.08-5.205-6.412-3.433-.262-6.143-2.301-5.836-6.177.305-3.849 3.371-5.327 6.72-5.426 9.813-.29 19.637-.396 29.455-.338 3.33.02 6.584 1.278 6.853 5.18.273 3.975-2.939 5.227-6.173 5.944-1.45.32-2.971.36-4.465.43-6.86.317-7.234.55-6.594 7.202.734 7.64.666 15.292.816 23.444"/>
        <path d="M539.199 858.866c-2.383 6.46-6.69 10.655-13.393 13.406 4.493 5.786 8.484 11.005 12.57 16.148 1.645 2.07 4.326 4.065 1.517 6.746-2.751 2.626-6.263 2.866-8.868-.162a164 164 0 0 1-10.956-14.241c-2.615-3.819-5.355-5.779-10.33-4.678-3.667.81-7.629.374-11.458.345-4.443-.034-6.93 1.502-6.365 6.494.414 3.655-.048 7.324-1.214 10.853-.742 2.246-2.047 3.964-4.696 3.522-2.613-.435-3.493-2.492-3.409-4.817.673-18.666-1.156-37.266-1.371-55.906-.09-7.71 2.835-10.814 10.552-11.845 12.556-1.68 24.609.838 36.148 5.365 10.065 3.95 14.585 16.18 11.273 28.77m-27.356 6.728c3.508-.998 7.1-1.774 10.508-3.043 6.352-2.365 8.692-6.07 8.679-12.98-.012-6.126-3.23-10.997-9.067-12.89-8.754-2.838-17.754-4.132-27.001-3.685-3.323.16-4.849 1.47-4.712 4.866.333 8.294.583 16.592.801 24.89.062 2.359.67 3.694 3.478 3.517 5.466-.346 10.951-.387 17.314-.675"/>
        <path d="M412.423 864.475c5.477-11.263 10.772-22.194 16.132-33.093 3.05-6.2 9.543-6.668 13.594-.828 1.977 2.851 3.374 6.108 4.99 9.205 8.53 16.36 17.705 32.394 24.653 49.548 1.244 3.074 1.198 5.79-1.648 7.426-2.804 1.612-4.85-.72-6.074-2.83-1.91-3.292-3.42-6.838-4.86-10.373-.94-2.312-2.098-3.362-4.832-3.085-11.116 1.125-22.278 1.065-33.378-.043-5.12-.511-8.61.367-10.353 5.746-.962 2.966-2.778 5.666-4.294 8.44-.928 1.698-2.26 3.163-4.393 2.294-2.128-.867-2.75-2.845-2.364-4.984.232-1.283.78-2.537 1.351-3.725 3.75-7.796 7.543-15.57 11.476-23.698m14.058-11.597-7.71 16.367h32.745l-16.54-32.946c-4.186 5.328-5.68 10.867-8.495 16.58"/>
        <path d="M581.365 835.161c-4.483-.028-4.288 2.779-4.23 5.548.322 15.462 1.379 30.91.87 46.386-.087 2.647-.304 5.319-.803 7.913-.43 2.24-1.734 4.123-4.357 4.01-2.526-.108-3.906-1.9-4.259-4.194-.426-2.78-.623-5.617-.649-8.431-.138-14.972-.337-29.945-.186-44.914.046-4.556-1.705-5.805-5.91-5.451-3.801.32-7.652.252-11.47.1-3.344-.133-6.625-1.068-6.658-5.176-.033-4.037 3.504-4.54 6.425-4.835 14.915-1.507 29.89-1.557 44.859-1.337 3.294.048 7.332.394 7.118 5.046-.193 4.21-3.885 5.047-7.324 5.22-4.315.218-8.647.078-13.426.115"/>
        <path d="M795.502 219.54c2.687-6.862 5.168-13.39 7.812-19.852.99-2.422 2.138-5.62 5.53-4.386 3.71 1.349 2.414 4.572 1.407 7.236a1830 1830 0 0 1-8.626 22.32c-.544 1.384-1.287 2.706-2.064 3.98-1.304 2.138-2.7 4.82-5.733 3.268-2.643-1.353-1.778-3.96-.912-6.201.779-2.016 1.627-4.006 2.586-6.366"/>
        <path d="M872.588 233.532c-2.867 7.14-5.546 13.945-8.34 20.702-.986 2.382-2.45 4.9-5.511 3.67-3.088-1.244-2.266-4.11-1.4-6.478 3.03-8.276 6.153-16.518 9.302-24.75.591-1.545 1.393-3.025 2.226-4.46 1.262-2.174 2.931-3.85 5.666-2.487 2.478 1.235 2.294 3.483 1.49 5.633-.99 2.645-2.185 5.213-3.433 8.17"/>
        <path d="M277.704 311.6c3.554 22.064 6.654 43.759 9.267 65.523.02.165.072.33.062.494-.13 2.326 1.428 5.683-1.872 6.412-3.298.73-4.287-2.685-5.102-5.098-2.369-7.014-2.343-14.422-2.845-21.69-.78-11.3-2.83-22.42-4.066-33.646-.525-4.776-.446-9.628-.474-14.446-.01-1.712-.315-4.186 2.245-4.239 2.117-.043 2.084 2.201 2.384 3.795.153.815.212 1.648.401 2.894"/>
        <path d="M325.354 211.306c-1.427.958-2.637.948-3.48-.013-4.002-4.559-5.528-10.17-5.74-15.994-.106-2.882 3.178-3.877 5.54-2.074 3.29 2.509 5.834 13.91 3.68 18.08"/>
        <path d="M307.502 193.386c5.237 4.849 6.097 11.086 6.763 17.372.127 1.194-.292 2.343-1.488 2.942-1.265.632-2.349.051-3.11-.867-3.98-4.804-5.769-10.443-5.822-16.602-.016-1.868 1.238-3.032 3.657-2.845"/>
        <path d="M299.782 205.382c.951 3.667 3.302 8.288-.705 9.648-4.42 1.5-4.716-3.952-5.843-6.924-1.043-2.751-1.405-5.774-1.93-8.701-.305-1.697-.162-3.479 1.807-4.125 1.973-.648 3.085.827 3.971 2.236 1.431 2.275 1.965 4.898 2.7 7.866"/>
    </g>
</svg>
